[37m2026-04-25 19:24:49.112[39m[0m[0m	[32m[1mDEBUG[22m[39m[0m[0m	[37mnative:1[39m[0m[0m[1m[37m	Pochi[39m[22m[0m[0m	pochi v0.6.8
[37m2026-04-25 19:24:49.617[39m[0m[0m	[32m[1mDEBUG[22m[39m[0m[0m	[37m$bunfs/root/pochi:519633[39m[0m[0m[1m[37m	loadAgents[39m[22m[0m[0m	Loaded 6 custom agents (6 valid, 0 invalid)
[37m2026-04-25 19:24:49.618[39m[0m[0m	[32m[1mDEBUG[22m[39m[0m[0m	[37m$bunfs/root/pochi:519634[39m[0m[0m[1m[37m	loadSkills[39m[22m[0m[0m	Loaded 2 skills (2 valid, 0 invalid)
[37m2026-04-25 19:24:49.711[39m[0m[0m	[32m[1mDEBUG[22m[39m[0m[0m	[37m$bunfs/root/pochi:416517[39m[0m[0m[1m[37m	MCPHub[39m[22m[0m[0m	MCP servers configuration changed via signal:
[37m2026-04-25 19:24:49.711[39m[0m[0m	[32m[1mDEBUG[22m[39m[0m[0m	[37m$bunfs/root/pochi:416629[39m[0m[0m[1m[37m	MCPHub[39m[22m[0m[0m	Build MCPHub Status
[37m2026-04-25 19:24:49.942[39m[0m[0m	[32m[1mDEBUG[22m[39m[0m[0m	[37mnative:7[39m[0m[0m[1m[37m	Pochi[39m[22m[0m[0m	Starting task runner...
[37m2026-04-25 19:24:49.968[39m[0m[0m	[32m[1mDEBUG[22m[39m[0m[0m	[37m$bunfs/root/pochi:507614[39m[0m[0m[1m[37m	generateTaskTitle[39m[22m[0m[0m	Generating task title, old: null, new: You are a software tester assigned to verify a test case using the agent browser.
[37m2026-04-25 19:25:03.019[39m[0m[0m	[32m[1mDEBUG[22m[39m[0m[0m	[37m$bunfs/root/pochi:507614[39m[0m[0m[1m[37m	generateTaskTitle[39m[22m[0m[0m	Generating task title, old: null, new: Navigate to http://localhost:3000.
[37m2026-04-25 19:25:18.271[39m[0m[0m	[32m[1mDEBUG[22m[39m[0m[0m	[37m$bunfs/root/pochi:507614[39m[0m[0m[1m[37m	generateTaskTitle[39m[22m[0m[0m	Generating task title, old: Navigate to http://localhost:3000., new: Verify task completion flow on localhost
[37m2026-04-25 19:25:24.364[39m[0m[0m	[32m[1mDEBUG[22m[39m[0m[0m	[37m$bunfs/root/pochi:518560[39m[0m[0m[1m[37m	newTask[39m[22m[0m[0m	Browser stream webSocket connected.
[37m2026-04-25 19:25:54.366[39m[0m[0m	[32m[1mDEBUG[22m[39m[0m[0m	[37mnative:7[39m[0m[0m[1m[37m	MjpegToMp4[39m[22m[0m[0m	Saved frame 0: 1777145154.366
[37m2026-04-25 19:26:41.284[39m[0m[0m	[32m[1mDEBUG[22m[39m[0m[0m	[37m$bunfs/root/pochi:518560[39m[0m[0m[1m[37m	newTask[39m[22m[0m[0m	Browser stream webSocket connected.
[37m2026-04-25 19:27:11.284[39m[0m[0m	[32m[1mDEBUG[22m[39m[0m[0m	[37mnative:7[39m[0m[0m[1m[37m	MjpegToMp4[39m[22m[0m[0m	Saved frame 1: 1777145231.284
[37m2026-04-25 19:27:31.885[39m[0m[0m	[32m[1mDEBUG[22m[39m[0m[0m	[37mnative:7[39m[0m[0m[1m[37m	MjpegToMp4[39m[22m[0m[0m	Saved frame 2: 1777145251.884
[37m2026-04-25 19:27:43.297[39m[0m[0m	[32m[1mDEBUG[22m[39m[0m[0m	[37mnative:7[39m[0m[0m[1m[37m	MjpegToMp4[39m[22m[0m[0m	Saved frame 3: 1777145263.297
[37m2026-04-25 19:30:54.505[39m[0m[0m	[32m[1mDEBUG[22m[39m[0m[0m	[37mnative:7[39m[0m[0m[1m[37m	MjpegToMp4[39m[22m[0m[0m	Saved frame 4: 1777145454.505
[37m2026-04-25 19:30:58.737[39m[0m[0m	[32m[1mDEBUG[22m[39m[0m[0m	[37mnative:7[39m[0m[0m[1m[37m	MjpegToMp4[39m[22m[0m[0m	Saved frame 5: 1777145458.737
[37m2026-04-25 19:31:43.880[39m[0m[0m	[32m[1mDEBUG[22m[39m[0m[0m	[37m$bunfs/root/pochi:104654[39m[0m[0m[1m[37m	MjpegToMp4[39m[22m[0m[0m	[ffmpeg] start: ffmpeg -safe 0 -f concat -i /tmp/pochi-mjpeg2mp4-k5kPv7/frames.ffconcat -y -vcodec libx264 -filter:v scale=854:480:force_original_aspect_ratio=decrease,pad=854:480:(ow-iw)/2:(oh-ih)/2:color=black -pix_fmt yuv420p -movflags +faststart -preset veryfast -crf 23 -an -f mp4 /tmp/pochi-browser-agent-video-5944d377-6ed9-4cb2-966a-679c42c8e6f3.mp4
[37m2026-04-25 19:31:43.899[39m[0m[0m	[32m[1mDEBUG[22m[39m[0m[0m	[37m$bunfs/root/pochi:104693[39m[0m[0m[1m[37m	MjpegToMp4[39m[22m[0m[0m	[ffmpeg] stderr: ffmpeg version 6.1.1-3ubuntu5 Copyright (c) 2000-2023 the FFmpeg developers
[37m2026-04-25 19:31:43.899[39m[0m[0m	[32m[1mDEBUG[22m[39m[0m[0m	[37m$bunfs/root/pochi:104693[39m[0m[0m[1m[37m	MjpegToMp4[39m[22m[0m[0m	[ffmpeg] stderr:   built with gcc 13 (Ubuntu 13.2.0-23ubuntu3)
[37m2026-04-25 19:31:43.899[39m[0m[0m	[32m[1mDEBUG[22m[39m[0m[0m	[37m$bunfs/root/pochi:104693[39m[0m[0m[1m[37m	MjpegToMp4[39m[22m[0m[0m	[ffmpeg] stderr:   configuration: --prefix=/usr --extra-version=3ubuntu5 --toolchain=hardened --libdir=/usr/lib/x86_64-linux-gnu --incdir=/usr/include/x86_64-linux-gnu --arch=amd64 --enable-gpl --disable-stripping --disable-omx --enable-gnutls --enable-libaom --enable-libass --enable-libbs2b --enable-libcaca --enable-libcdio --enable-libcodec2 --enable-libdav1d --enable-libflite --enable-libfontconfig --enable-libfreetype --enable-libfribidi --enable-libglslang --enable-libgme --enable-libgsm --enable-libharfbuzz --enable-libmp3lame --enable-libmysofa --enable-libopenjpeg --enable-libopenmpt --enable-libopus --enable-librubberband --enable-libshine --enable-libsnappy --enable-libsoxr --enable-libspeex --enable-libtheora --enable-libtwolame --enable-libvidstab --enable-libvorbis --enable-libvpx --enable-libwebp --enable-libx265 --enable-libxml2 --enable-libxvid --enable-libzimg --enable-openal --enable-opencl --enable-opengl --disable-sndio --enable-libvpl --disable-libmfx --enable-libdc1394 --enable-libdrm --enable-libiec61883 --enable-chromaprint --enable-frei0r --enable-ladspa --enable-libbluray --enable-libjack --enable-libpulse --enable-librabbitmq --enable-librist --enable-libsrt --enable-libssh --enable-libsvtav1 --enable-libx264 --enable-libzmq --enable-libzvbi --enable-lv2 --enable-sdl2 --enable-libplacebo --enable-librav1e --enable-pocketsphinx --enable-librsvg --enable-libjxl --enable-shared
[37m2026-04-25 19:31:43.899[39m[0m[0m	[32m[1mDEBUG[22m[39m[0m[0m	[37m$bunfs/root/pochi:104693[39m[0m[0m[1m[37m	MjpegToMp4[39m[22m[0m[0m	[ffmpeg] stderr:   libavutil      58. 29.100 / 58. 29.100
[37m2026-04-25 19:31:43.899[39m[0m[0m	[32m[1mDEBUG[22m[39m[0m[0m	[37m$bunfs/root/pochi:104693[39m[0m[0m[1m[37m	MjpegToMp4[39m[22m[0m[0m	[ffmpeg] stderr:   libavcodec     60. 31.102 / 60. 31.102
[37m2026-04-25 19:31:43.899[39m[0m[0m	[32m[1mDEBUG[22m[39m[0m[0m	[37m$bunfs/root/pochi:104693[39m[0m[0m[1m[37m	MjpegToMp4[39m[22m[0m[0m	[ffmpeg] stderr:   libavformat    60. 16.100 / 60. 16.100
[37m2026-04-25 19:31:43.899[39m[0m[0m	[32m[1mDEBUG[22m[39m[0m[0m	[37m$bunfs/root/pochi:104693[39m[0m[0m[1m[37m	MjpegToMp4[39m[22m[0m[0m	[ffmpeg] stderr:   libavdevice    60.  3.100 / 60.  3.100
[37m2026-04-25 19:31:43.899[39m[0m[0m	[32m[1mDEBUG[22m[39m[0m[0m	[37m$bunfs/root/pochi:104693[39m[0m[0m[1m[37m	MjpegToMp4[39m[22m[0m[0m	[ffmpeg] stderr:   libavfilter     9. 12.100 /  9. 12.100
[37m2026-04-25 19:31:43.899[39m[0m[0m	[32m[1mDEBUG[22m[39m[0m[0m	[37m$bunfs/root/pochi:104693[39m[0m[0m[1m[37m	MjpegToMp4[39m[22m[0m[0m	[ffmpeg] stderr:   libswscale      7.  5.100 /  7.  5.100
[37m2026-04-25 19:31:43.899[39m[0m[0m	[32m[1mDEBUG[22m[39m[0m[0m	[37m$bunfs/root/pochi:104693[39m[0m[0m[1m[37m	MjpegToMp4[39m[22m[0m[0m	[ffmpeg] stderr:   libswresample   4. 12.100 /  4. 12.100
[37m2026-04-25 19:31:43.899[39m[0m[0m	[32m[1mDEBUG[22m[39m[0m[0m	[37m$bunfs/root/pochi:104693[39m[0m[0m[1m[37m	MjpegToMp4[39m[22m[0m[0m	[ffmpeg] stderr:   libpostproc    57.  3.100 / 57.  3.100
[37m2026-04-25 19:31:43.900[39m[0m[0m	[32m[1mDEBUG[22m[39m[0m[0m	[37m$bunfs/root/pochi:104693[39m[0m[0m[1m[37m	MjpegToMp4[39m[22m[0m[0m	[ffmpeg] stderr: [mjpeg @ 0x5597789f3440] EOI missing, emulating
[37m2026-04-25 19:31:43.900[39m[0m[0m	[32m[1mDEBUG[22m[39m[0m[0m	[37m$bunfs/root/pochi:104693[39m[0m[0m[1m[37m	MjpegToMp4[39m[22m[0m[0m	[ffmpeg] stderr: Input #0, concat, from '/tmp/pochi-mjpeg2mp4-k5kPv7/frames.ffconcat':
[37m2026-04-25 19:31:43.900[39m[0m[0m	[32m[1mDEBUG[22m[39m[0m[0m	[37m$bunfs/root/pochi:104693[39m[0m[0m[1m[37m	MjpegToMp4[39m[22m[0m[0m	[ffmpeg] stderr:   Duration: N/A, start: 0.000000, bitrate: N/A
[37m2026-04-25 19:31:43.900[39m[0m[0m	[32m[1mDEBUG[22m[39m[0m[0m	[37m$bunfs/root/pochi:104693[39m[0m[0m[1m[37m	MjpegToMp4[39m[22m[0m[0m	[ffmpeg] stderr:   Stream #0:0: Video: mjpeg (Baseline), yuvj420p(pc, bt470bg/unknown/unknown), 1280x577 [SAR 1:1 DAR 1280:577], 25 fps, 25 tbr, 25 tbn
[37m2026-04-25 19:31:43.900[39m[0m[0m	[32m[1mDEBUG[22m[39m[0m[0m	[37m$bunfs/root/pochi:104693[39m[0m[0m[1m[37m	MjpegToMp4[39m[22m[0m[0m	[ffmpeg] stderr: Stream mapping:
[37m2026-04-25 19:31:43.900[39m[0m[0m	[32m[1mDEBUG[22m[39m[0m[0m	[37m$bunfs/root/pochi:104693[39m[0m[0m[1m[37m	MjpegToMp4[39m[22m[0m[0m	[ffmpeg] stderr:   Stream #0:0 -> #0:0 (mjpeg (native) -> h264 (libx264))
[37m2026-04-25 19:31:43.900[39m[0m[0m	[32m[1mDEBUG[22m[39m[0m[0m	[37m$bunfs/root/pochi:104693[39m[0m[0m[1m[37m	MjpegToMp4[39m[22m[0m[0m	[ffmpeg] stderr: Press [q] to stop, [?] for help
[37m2026-04-25 19:31:43.900[39m[0m[0m	[32m[1mDEBUG[22m[39m[0m[0m	[37m$bunfs/root/pochi:104693[39m[0m[0m[1m[37m	MjpegToMp4[39m[22m[0m[0m	[ffmpeg] stderr: [mjpeg @ 0x5597789f3440] EOI missing, emulating
[37m2026-04-25 19:31:43.901[39m[0m[0m	[32m[1mDEBUG[22m[39m[0m[0m	[37m$bunfs/root/pochi:104693[39m[0m[0m[1m[37m	MjpegToMp4[39m[22m[0m[0m	[ffmpeg] stderr: [swscaler @ 0x559778a0e980] deprecated pixel format used, make sure you did set range correctly
[37m2026-04-25 19:31:43.905[39m[0m[0m	[32m[1mDEBUG[22m[39m[0m[0m	[37m$bunfs/root/pochi:104693[39m[0m[0m[1m[37m	MjpegToMp4[39m[22m[0m[0m	[ffmpeg] stderr: [swscaler @ 0x559778d33c00] deprecated pixel format used, make sure you did set range correctly
[37m2026-04-25 19:31:43.912[39m[0m[0m	[32m[1mDEBUG[22m[39m[0m[0m	[37m$bunfs/root/pochi:104693[39m[0m[0m[1m[37m	MjpegToMp4[39m[22m[0m[0m	[ffmpeg] stderr:     Last message repeated 2 times
[37m2026-04-25 19:31:43.912[39m[0m[0m	[32m[1mDEBUG[22m[39m[0m[0m	[37m$bunfs/root/pochi:104693[39m[0m[0m[1m[37m	MjpegToMp4[39m[22m[0m[0m	[ffmpeg] stderr: [libx264 @ 0x5597789f5d00] using SAR=1/1
[37m2026-04-25 19:31:43.912[39m[0m[0m	[32m[1mDEBUG[22m[39m[0m[0m	[37m$bunfs/root/pochi:104693[39m[0m[0m[1m[37m	MjpegToMp4[39m[22m[0m[0m	[ffmpeg] stderr: [libx264 @ 0x5597789f5d00] using cpu capabilities: MMX2 SSE2Fast SSSE3 SSE4.2 AVX FMA3 BMI2 AVX2
[37m2026-04-25 19:31:43.913[39m[0m[0m	[32m[1mDEBUG[22m[39m[0m[0m	[37m$bunfs/root/pochi:104693[39m[0m[0m[1m[37m	MjpegToMp4[39m[22m[0m[0m	[ffmpeg] stderr: [libx264 @ 0x5597789f5d00] profile High, level 3.0, 4:2:0, 8-bit
[37m2026-04-25 19:31:43.913[39m[0m[0m	[32m[1mDEBUG[22m[39m[0m[0m	[37m$bunfs/root/pochi:104693[39m[0m[0m[1m[37m	MjpegToMp4[39m[22m[0m[0m	[ffmpeg] stderr: [libx264 @ 0x5597789f5d00] 264 - core 164 r3108 31e19f9 - H.264/MPEG-4 AVC codec - Copyleft 2003-2023 - http://www.videolan.org/x264.html - options: cabac=1 ref=1 deblock=1:0:0 analyse=0x3:0x113 me=hex subme=2 psy=1 psy_rd=1.00:0.00 mixed_ref=0 me_range=16 chroma_me=1 trellis=0 8x8dct=1 cqm=0 deadzone=21,11 fast_pskip=1 chroma_qp_offset=0 threads=15 lookahead_threads=3 sliced_threads=0 nr=0 decimate=1 interlaced=0 bluray_compat=0 constrained_intra=0 bframes=3 b_pyramid=2 b_adapt=1 b_bias=0 direct=1 weightb=1 open_gop=0 weightp=1 keyint=250 keyint_min=25 scenecut=40 intra_refresh=0 rc_lookahead=10 rc=crf mbtree=1 crf=23.0 qcomp=0.60 qpmin=0 qpmax=69 qpstep=4 ip_ratio=1.40 aq=1:1.00
[37m2026-04-25 19:31:43.913[39m[0m[0m	[32m[1mDEBUG[22m[39m[0m[0m	[37m$bunfs/root/pochi:104693[39m[0m[0m[1m[37m	MjpegToMp4[39m[22m[0m[0m	[ffmpeg] stderr: Output #0, mp4, to '/tmp/pochi-browser-agent-video-5944d377-6ed9-4cb2-966a-679c42c8e6f3.mp4':
[37m2026-04-25 19:31:43.913[39m[0m[0m	[32m[1mDEBUG[22m[39m[0m[0m	[37m$bunfs/root/pochi:104693[39m[0m[0m[1m[37m	MjpegToMp4[39m[22m[0m[0m	[ffmpeg] stderr:   Metadata:
[37m2026-04-25 19:31:43.913[39m[0m[0m	[32m[1mDEBUG[22m[39m[0m[0m	[37m$bunfs/root/pochi:104693[39m[0m[0m[1m[37m	MjpegToMp4[39m[22m[0m[0m	[ffmpeg] stderr:     encoder         : Lavf60.16.100
[37m2026-04-25 19:31:43.913[39m[0m[0m	[32m[1mDEBUG[22m[39m[0m[0m	[37m$bunfs/root/pochi:104693[39m[0m[0m[1m[37m	MjpegToMp4[39m[22m[0m[0m	[ffmpeg] stderr:   Stream #0:0: Video: h264 (avc1 / 0x31637661), yuv420p(tv, bt470bg/unknown/unknown, progressive), 854x480 [SAR 35200:35197 DAR 3080:1731], q=2-31, 25 fps, 12800 tbn
[37m2026-04-25 19:31:43.914[39m[0m[0m	[32m[1mDEBUG[22m[39m[0m[0m	[37m$bunfs/root/pochi:104693[39m[0m[0m[1m[37m	MjpegToMp4[39m[22m[0m[0m	[ffmpeg] stderr:     Metadata:
[37m2026-04-25 19:31:43.914[39m[0m[0m	[32m[1mDEBUG[22m[39m[0m[0m	[37m$bunfs/root/pochi:104693[39m[0m[0m[1m[37m	MjpegToMp4[39m[22m[0m[0m	[ffmpeg] stderr:       encoder         : Lavc60.31.102 libx264
[37m2026-04-25 19:31:43.914[39m[0m[0m	[32m[1mDEBUG[22m[39m[0m[0m	[37m$bunfs/root/pochi:104693[39m[0m[0m[1m[37m	MjpegToMp4[39m[22m[0m[0m	[ffmpeg] stderr:     Side data:
[37m2026-04-25 19:31:43.914[39m[0m[0m	[32m[1mDEBUG[22m[39m[0m[0m	[37m$bunfs/root/pochi:104693[39m[0m[0m[1m[37m	MjpegToMp4[39m[22m[0m[0m	[ffmpeg] stderr:       cpb: bitrate max/min/avg: 0/0/0 buffer size: 0 vbv_delay: N/A
[37m2026-04-25 19:31:43.914[39m[0m[0m	[32m[1mDEBUG[22m[39m[0m[0m	[37m$bunfs/root/pochi:104693[39m[0m[0m[1m[37m	MjpegToMp4[39m[22m[0m[0m	[ffmpeg] stderr: frame=    0 fps=0.0 q=0.0 size=       0kB time=N/A bitrate=N/A speed=N/A    
[37m2026-04-25 19:31:44.718[39m[0m[0m	[32m[1mDEBUG[22m[39m[0m[0m	[37m$bunfs/root/pochi:104693[39m[0m[0m[1m[37m	MjpegToMp4[39m[22m[0m[0m	[ffmpeg] stderr: frame=  722 fps=0.0 q=28.0 size=       0kB time=00:00:28.76 bitrate=   0.0kbits/s dup=747 drop=0 speed=55.1x    
[37m2026-04-25 19:31:45.000[39m[0m[0m	[32m[1mDEBUG[22m[39m[0m[0m	[37m$bunfs/root/pochi:104693[39m[0m[0m[1m[37m	MjpegToMp4[39m[22m[0m[0m	[ffmpeg] stderr: [vost#0:0/libx264 @ 0x5597789f5a40] More than 1000 frames duplicated
[37m2026-04-25 19:31:45.024[39m[0m[0m	[32m[1mDEBUG[22m[39m[0m[0m	[37m$bunfs/root/pochi:104693[39m[0m[0m[1m[37m	MjpegToMp4[39m[22m[0m[0m	[ffmpeg] stderr: frame= 1078 fps=980 q=28.0 size=       0kB time=00:00:43.00 bitrate=   0.0kbits/s dup=1101 drop=0 speed=39.1x    
[37m2026-04-25 19:31:45.127[39m[0m[0m	[32m[1mDEBUG[22m[39m[0m[0m	[37m$bunfs/root/pochi:104693[39m[0m[0m[1m[37m	MjpegToMp4[39m[22m[0m[0m	[ffmpeg] stderr: [mp4 @ 0x5597789fb780] Starting second pass: moving the moov atom to the beginning of the file
[37m2026-04-25 19:31:45.128[39m[0m[0m	[32m[1mDEBUG[22m[39m[0m[0m	[37m$bunfs/root/pochi:104693[39m[0m[0m[1m[37m	MjpegToMp4[39m[22m[0m[0m	[ffmpeg] stderr: [out#0/mp4 @ 0x5597789f51c0] video:44kB audio:0kB subtitle:0kB other streams:0kB global headers:0kB muxing overhead: 34.579727%
[37m2026-04-25 19:31:45.128[39m[0m[0m	[32m[1mDEBUG[22m[39m[0m[0m	[37m$bunfs/root/pochi:104693[39m[0m[0m[1m[37m	MjpegToMp4[39m[22m[0m[0m	[ffmpeg] stderr: frame= 1236 fps=1006 q=-1.0 Lsize=      60kB time=00:00:49.32 bitrate=   9.9kbits/s dup=1229 drop=0 speed=40.2x    
[37m2026-04-25 19:31:45.182[39m[0m[0m	[32m[1mDEBUG[22m[39m[0m[0m	[37m$bunfs/root/pochi:104693[39m[0m[0m[1m[37m	MjpegToMp4[39m[22m[0m[0m	[ffmpeg] stderr: [libx264 @ 0x5597789f5d00] frame I:5     Avg QP: 9.45  size:  2905
[37m2026-04-25 19:31:45.182[39m[0m[0m	[32m[1mDEBUG[22m[39m[0m[0m	[37m$bunfs/root/pochi:104693[39m[0m[0m[1m[37m	MjpegToMp4[39m[22m[0m[0m	[ffmpeg] stderr: [libx264 @ 0x5597789f5d00] frame P:310   Avg QP:10.16  size:    27
[37m2026-04-25 19:31:45.182[39m[0m[0m	[32m[1mDEBUG[22m[39m[0m[0m	[37m$bunfs/root/pochi:104693[39m[0m[0m[1m[37m	MjpegToMp4[39m[22m[0m[0m	[ffmpeg] stderr: [libx264 @ 0x5597789f5d00] frame B:921   Avg QP:12.67  size:    24
[37m2026-04-25 19:31:45.183[39m[0m[0m	[32m[1mDEBUG[22m[39m[0m[0m	[37m$bunfs/root/pochi:104693[39m[0m[0m[1m[37m	MjpegToMp4[39m[22m[0m[0m	[ffmpeg] stderr: [libx264 @ 0x5597789f5d00] consecutive B-frames:  0.6%  0.0%  0.0% 99.4%
[37m2026-04-25 19:31:45.183[39m[0m[0m	[32m[1mDEBUG[22m[39m[0m[0m	[37m$bunfs/root/pochi:104693[39m[0m[0m[1m[37m	MjpegToMp4[39m[22m[0m[0m	[ffmpeg] stderr: [libx264 @ 0x5597789f5d00] mb I  I16..4: 97.1%  0.1%  2.7%
[37m2026-04-25 19:31:45.183[39m[0m[0m	[32m[1mDEBUG[22m[39m[0m[0m	[37m$bunfs/root/pochi:104693[39m[0m[0m[1m[37m	MjpegToMp4[39m[22m[0m[0m	[ffmpeg] stderr: [libx264 @ 0x5597789f5d00] mb P  I16..4:  0.0%  0.0%  0.0%  P16..4:  0.0%  0.0%  0.0%  0.0%  0.0%    skip:100.0%
[37m2026-04-25 19:31:45.183[39m[0m[0m	[32m[1mDEBUG[22m[39m[0m[0m	[37m$bunfs/root/pochi:104693[39m[0m[0m[1m[37m	MjpegToMp4[39m[22m[0m[0m	[ffmpeg] stderr: [libx264 @ 0x5597789f5d00] mb B  I16..4:  0.0%  0.0%  0.0%  B16..8:  0.0%  0.0%  0.0%  direct: 0.0%  skip:100.0%
[37m2026-04-25 19:31:45.183[39m[0m[0m	[32m[1mDEBUG[22m[39m[0m[0m	[37m$bunfs/root/pochi:104693[39m[0m[0m[1m[37m	MjpegToMp4[39m[22m[0m[0m	[ffmpeg] stderr: [libx264 @ 0x5597789f5d00] 8x8 transform intra:0.1% inter:0.0%
[37m2026-04-25 19:31:45.184[39m[0m[0m	[32m[1mDEBUG[22m[39m[0m[0m	[37m$bunfs/root/pochi:104693[39m[0m[0m[1m[37m	MjpegToMp4[39m[22m[0m[0m	[ffmpeg] stderr: [libx264 @ 0x5597789f5d00] coded y,uvDC,uvAC intra: 2.1% 2.8% 2.7% inter: 0.0% 0.0% 0.0%
[37m2026-04-25 19:31:45.184[39m[0m[0m	[32m[1mDEBUG[22m[39m[0m[0m	[37m$bunfs/root/pochi:104693[39m[0m[0m[1m[37m	MjpegToMp4[39m[22m[0m[0m	[ffmpeg] stderr: [libx264 @ 0x5597789f5d00] i16 v,h,dc,p: 82% 15%  3%  0%
[37m2026-04-25 19:31:45.184[39m[0m[0m	[32m[1mDEBUG[22m[39m[0m[0m	[37m$bunfs/root/pochi:104693[39m[0m[0m[1m[37m	MjpegToMp4[39m[22m[0m[0m	[ffmpeg] stderr: [libx264 @ 0x5597789f5d00] i8 v,h,dc,ddl,ddr,vr,hd,vl,hu:  0% 45% 48%  0%  0%  2%  0%  0%  5%
[37m2026-04-25 19:31:45.184[39m[0m[0m	[32m[1mDEBUG[22m[39m[0m[0m	[37m$bunfs/root/pochi:104693[39m[0m[0m[1m[37m	MjpegToMp4[39m[22m[0m[0m	[ffmpeg] stderr: [libx264 @ 0x5597789f5d00] i4 v,h,dc,ddl,ddr,vr,hd,vl,hu: 27% 28% 26%  1%  2%  3%  5%  1%  5%
[37m2026-04-25 19:31:45.184[39m[0m[0m	[32m[1mDEBUG[22m[39m[0m[0m	[37m$bunfs/root/pochi:104693[39m[0m[0m[1m[37m	MjpegToMp4[39m[22m[0m[0m	[ffmpeg] stderr: [libx264 @ 0x5597789f5d00] i8c dc,h,v,p: 98%  1%  1%  0%
[37m2026-04-25 19:31:45.184[39m[0m[0m	[32m[1mDEBUG[22m[39m[0m[0m	[37m$bunfs/root/pochi:104693[39m[0m[0m[1m[37m	MjpegToMp4[39m[22m[0m[0m	[ffmpeg] stderr: [libx264 @ 0x5597789f5d00] Weighted P-Frames: Y:0.0% UV:0.0%
[37m2026-04-25 19:31:45.184[39m[0m[0m	[32m[1mDEBUG[22m[39m[0m[0m	[37m$bunfs/root/pochi:104693[39m[0m[0m[1m[37m	MjpegToMp4[39m[22m[0m[0m	[ffmpeg] stderr: [libx264 @ 0x5597789f5d00] kb/s:7.24
[37m2026-04-25 19:31:45.186[39m[0m[0m	[32m[1mDEBUG[22m[39m[0m[0m	[37m$bunfs/root/pochi:104693[39m[0m[0m[1m[37m	MjpegToMp4[39m[22m[0m[0m	[ffmpeg] stderr: 
[37m2026-04-25 19:31:45.186[39m[0m[0m	[32m[1mDEBUG[22m[39m[0m[0m	[37mevents:98[39m[0m[0m[1m[37m	MjpegToMp4[39m[22m[0m[0m	[ffmpeg] end
[37m2026-04-25 19:31:48.854[39m[0m[0m	[32m[1mDEBUG[22m[39m[0m[0m	[37m$bunfs/root/pochi:507614[39m[0m[0m[1m[37m	generateTaskTitle[39m[22m[0m[0m	Generating task title, old: You are a software tester assigned to verify a test case using the agent browser., new: Verify Trigger.dev dashboard task progress on localhost
[37m2026-04-25 19:31:49.664[39m[0m[0m	[32m[1mDEBUG[22m[39m[0m[0m	[37mnative:7[39m[0m[0m[1m[37m	Pochi[39m[22m[0m[0m	Task runner finished successfully.
[37m2026-04-25 19:31:49.664[39m[0m[0m	[32m[1mDEBUG[22m[39m[0m[0m	[37mnative:7[39m[0m[0m[1m[37m	Pochi[39m[22m[0m[0m	Shutting down...
[37m2026-04-25 19:31:49.671[39m[0m[0m	[32m[1mDEBUG[22m[39m[0m[0m	[37mnative:7[39m[0m[0m[1m[37m	Pochi[39m[22m[0m[0m	Shutdown completed. Process will exit.
[37m2026-04-25 19:31:49.671[39m[0m[0m	[32m[1mDEBUG[22m[39m[0m[0m	[37m[39m[0m[0m[1m[37m	Pochi[39m[22m[0m[0m	Process exiting with code 0
                                                                                                                                                                                                                                                                                                                                                                                                                                                                                                                                                                                                                                                                                                                                                                                                                                                                                                                                                                                                                                                                                                                                                                                                                                                                                                                                                                                                                                                                                                                                                                                                                                                                                                                                                                                                                                                                                                                                                                                                                                                                                                                                                                                                                                                                                                                                                                                                                                                                                                                                                                                                                                                                                                                                                                                                                                                                                                                                                                                                                                                                                                                                                                                                                                                                                                                                                                                                                                                                                                                                                                                                                                                                                                                                                                                                                                                                                                                                                                                                                                                                                                                                                                                                                                                                                                                                                                                                                                                                                                                                                                                                                                                                                                                                                                                                                                                                                                                                                                                                                                                                                                                                                                                                                                                                                                                                                                                                                                                                                                                                                                                                                                                                                                                                                                                                                                                                                                                                                                                                                                                                                                                                                                                                                                                                                                                                                                                                                                                                                                                                                                                                                                                                                                                                                                                                                                                                                                                                                                                                                                                                                                                                                                                                                                                                                                                                                                                                                                                                                                                                                                                                                                                                                                                                                                                                                                                                                                                                                                                                                                                                                                                                                                                                                                                                                                                                                                                                                                                                                                                                                                                                                                                                                                                                                                                                                                                                                                                                                                                                                                                                                                                                                                                                                                                                                                                                                                                                                                                                                                                                                                                                                                                                                                                                                                                                                                                                                                                                                                                                                                                                                                                                                                                                                                                                                                                                                                                                                                                                                                                                                                                                                                                                                                                                                                                                                                                                                                                                                                                                                                                                                                                                                                                                                                                                                                                                                                                                                                                                                                                                                                                                                                                                                                                                                                                                                                                                                                                                                                                                                                                                                                                                                                                                                                                                                                                                                                                                                                                                                                                                                                                                                                                                                                                                                                                                                                                                                                                                                                                                                                                                                                                                                                                                                                                                                                                                                                                                                                                                                                                                                                                                                                                                                                                                                                                                                                                                                                                                                                                                                                                                                                                                                                                                                                                                                                                                                                                                                                                                                                                                                                                                                                                                                                                                                                                                                                                                                                                                                                                                                                                                                                                                                                                                                                                                                                                                                                                                                                                                                                                                                                                                                                                                                                                                                                                                                                                                                                                                                                                                                                                                                                                                                                                                                                                                                                                                                                                                                                                                                                                                                                                                                                                                                                                                                                                                                                                                                                                                                                                                                                                                                                                                                                                                                                                                                                                                                                                                                                                                                                                                                                                                                                                                                                                                                                                                                                                                                                                                                                                                                                                                                                                                                                                                                                                                                                                                                                                    [37m2026-04-25 19:26:32.565[39m[0m[0m	[32m[1mDEBUG[22m[39m[0m[0m	[37mnative:7[39m[0m[0m[1m[37m	MjpegToMp4[39m[22m[0m[0m	Saved frame 201: 1777145192.562
[37m2026-04-25 19:26:47.637[39m[0m[0m	[32m[1mDEBUG[22m[39m[0m[0m	[37mnative:7[39m[0m[0m[1m[37m	MjpegToMp4[39m[22m[0m[0m	Saved frame 202: 1777145207.637
[37m2026-04-25 19:27:39.280[39m[0m[0m	[32m[1mDEBUG[22m[39m[0m[0m	[37mnative:7[39m[0m[0m[1m[37m	MjpegToMp4[39m[22m[0m[0m	Saved frame 203: 1777145259.277
[37m2026-04-25 19:29:09.666[39m[0m[0m	[32m[1mDEBUG[22m[39m[0m[0m	[37m$bunfs/root/pochi:104654[39m[0m[0m[1m[37m	MjpegToMp4[39m[22m[0m[0m	[ffmpeg] start: ffmpeg -safe 0 -f concat -i /tmp/pochi-mjpeg2mp4-y1yE5E/frames.ffconcat -y -vcodec libx264 -filter:v scale=854:480:force_original_aspect_ratio=decrease,pad=854:480:(ow-iw)/2:(oh-ih)/2:color=black -pix_fmt yuv420p -movflags +faststart -preset veryfast -crf 23 -an -f mp4 /tmp/pochi-browser-agent-video-a72bd094-fcd9-48a5-856d-3405a8aa92f5.mp4
[37m2026-04-25 19:29:09.686[39m[0m[0m	[32m[1mDEBUG[22m[39m[0m[0m	[37m$bunfs/root/pochi:104693[39m[0m[0m[1m[37m	MjpegToMp4[39m[22m[0m[0m	[ffmpeg] stderr: ffmpeg version 6.1.1-3ubuntu5 Copyright (c) 2000-2023 the FFmpeg developers
[37m2026-04-25 19:29:09.687[39m[0m[0m	[32m[1mDEBUG[22m[39m[0m[0m	[37m$bunfs/root/pochi:104693[39m[0m[0m[1m[37m	MjpegToMp4[39m[22m[0m[0m	[ffmpeg] stderr:   built with gcc 13 (Ubuntu 13.2.0-23ubuntu3)
[37m2026-04-25 19:29:09.687[39m[0m[0m	[32m[1mDEBUG[22m[39m[0m[0m	[37m$bunfs/root/pochi:104693[39m[0m[0m[1m[37m	MjpegToMp4[39m[22m[0m[0m	[ffmpeg] stderr:   configuration: --prefix=/usr --extra-version=3ubuntu5 --toolchain=hardened --libdir=/usr/lib/x86_64-linux-gnu --incdir=/usr/include/x86_64-linux-gnu --arch=amd64 --enable-gpl --disable-stripping --disable-omx --enable-gnutls --enable-libaom --enable-libass --enable-libbs2b --enable-libcaca --enable-libcdio --enable-libcodec2 --enable-libdav1d --enable-libflite --enable-libfontconfig --enable-libfreetype --enable-libfribidi --enable-libglslang --enable-libgme --enable-libgsm --enable-libharfbuzz --enable-libmp3lame --enable-libmysofa --enable-libopenjpeg --enable-libopenmpt --enable-libopus --enable-librubberband --enable-libshine --enable-libsnappy --enable-libsoxr --enable-libspeex --enable-libtheora --enable-libtwolame --enable-libvidstab --enable-libvorbis --enable-libvpx --enable-libwebp --enable-libx265 --enable-libxml2 --enable-libxvid --enable-libzimg --enable-openal --enable-opencl --enable-opengl --disable-sndio --enable-libvpl --disable-libmfx --enable-libdc1394 --enable-libdrm --enable-libiec61883 --enable-chromaprint --enable-frei0r --enable-ladspa --enable-libbluray --enable-libjack --enable-libpulse --enable-librabbitmq --enable-librist --enable-libsrt --enable-libssh --enable-libsvtav1 --enable-libx264 --enable-libzmq --enable-libzvbi --enable-lv2 --enable-sdl2 --enable-libplacebo --enable-librav1e --enable-pocketsphinx --enable-librsvg --enable-libjxl --enable-shared
[37m2026-04-25 19:29:09.687[39m[0m[0m	[32m[1mDEBUG[22m[39m[0m[0m	[37m$bunfs/root/pochi:104693[39m[0m[0m[1m[37m	MjpegToMp4[39m[22m[0m[0m	[ffmpeg] stderr:   libavutil      58. 29.100 / 58. 29.100
[37m2026-04-25 19:29:09.687[39m[0m[0m	[32m[1mDEBUG[22m[39m[0m[0m	[37m$bunfs/root/pochi:104693[39m[0m[0m[1m[37m	MjpegToMp4[39m[22m[0m[0m	[ffmpeg] stderr:   libavcodec     60. 31.102 / 60. 31.102
[37m2026-04-25 19:29:09.687[39m[0m[0m	[32m[1mDEBUG[22m[39m[0m[0m	[37m$bunfs/root/pochi:104693[39m[0m[0m[1m[37m	MjpegToMp4[39m[22m[0m[0m	[ffmpeg] stderr:   libavformat    60. 16.100 / 60. 16.100
[37m2026-04-25 19:29:09.687[39m[0m[0m	[32m[1mDEBUG[22m[39m[0m[0m	[37m$bunfs/root/pochi:104693[39m[0m[0m[1m[37m	MjpegToMp4[39m[22m[0m[0m	[ffmpeg] stderr:   libavdevice    60.  3.100 / 60.  3.100
[37m2026-04-25 19:29:09.687[39m[0m[0m	[32m[1mDEBUG[22m[39m[0m[0m	[37m$bunfs/root/pochi:104693[39m[0m[0m[1m[37m	MjpegToMp4[39m[22m[0m[0m	[ffmpeg] stderr:   libavfilter     9. 12.100 /  9. 12.100
[37m2026-04-25 19:29:09.687[39m[0m[0m	[32m[1mDEBUG[22m[39m[0m[0m	[37m$bunfs/root/pochi:104693[39m[0m[0m[1m[37m	MjpegToMp4[39m[22m[0m[0m	[ffmpeg] stderr:   libswscale      7.  5.100 /  7.  5.100
[37m2026-04-25 19:29:09.687[39m[0m[0m	[32m[1mDEBUG[22m[39m[0m[0m	[37m$bunfs/root/pochi:104693[39m[0m[0m[1m[37m	MjpegToMp4[39m[22m[0m[0m	[ffmpeg] stderr:   libswresample   4. 12.100 /  4. 12.100
[37m2026-04-25 19:29:09.687[39m[0m[0m	[32m[1mDEBUG[22m[39m[0m[0m	[37m$bunfs/root/pochi:104693[39m[0m[0m[1m[37m	MjpegToMp4[39m[22m[0m[0m	[ffmpeg] stderr:   libpostproc    57.  3.100 / 57.  3.100
[37m2026-04-25 19:29:09.687[39m[0m[0m	[32m[1mDEBUG[22m[39m[0m[0m	[37m$bunfs/root/pochi:104693[39m[0m[0m[1m[37m	MjpegToMp4[39m[22m[0m[0m	[ffmpeg] stderr: Input #0, concat, from '/tmp/pochi-mjpeg2mp4-y1yE5E/frames.ffconcat':
[37m2026-04-25 19:29:09.687[39m[0m[0m	[32m[1mDEBUG[22m[39m[0m[0m	[37m$bunfs/root/pochi:104693[39m[0m[0m[1m[37m	MjpegToMp4[39m[22m[0m[0m	[ffmpeg] stderr:   Duration: N/A, start: 0.000000, bitrate: N/A
[37m2026-04-25 19:29:09.687[39m[0m[0m	[32m[1mDEBUG[22m[39m[0m[0m	[37m$bunfs/root/pochi:104693[39m[0m[0m[1m[37m	MjpegToMp4[39m[22m[0m[0m	[ffmpeg] stderr:   Stream #0:0: Video: mjpeg (Baseline), yuvj420p(pc, bt470bg/unknown/unknown), 1280x577 [SAR 1:1 DAR 1280:577], 25 fps, 25 tbr, 25 tbn
[37m2026-04-25 19:29:09.687[39m[0m[0m	[32m[1mDEBUG[22m[39m[0m[0m	[37m$bunfs/root/pochi:104693[39m[0m[0m[1m[37m	MjpegToMp4[39m[22m[0m[0m	[ffmpeg] stderr: Stream mapping:
[37m2026-04-25 19:29:09.687[39m[0m[0m	[32m[1mDEBUG[22m[39m[0m[0m	[37m$bunfs/root/pochi:104693[39m[0m[0m[1m[37m	MjpegToMp4[39m[22m[0m[0m	[ffmpeg] stderr:   Stream #0:0 -> #0:0 (mjpeg (native) -> h264 (libx264))
[37m2026-04-25 19:29:09.687[39m[0m[0m	[32m[1mDEBUG[22m[39m[0m[0m	[37m$bunfs/root/pochi:104693[39m[0m[0m[1m[37m	MjpegToMp4[39m[22m[0m[0m	[ffmpeg] stderr: Press [q] to stop, [?] for help
[37m2026-04-25 19:29:09.689[39m[0m[0m	[32m[1mDEBUG[22m[39m[0m[0m	[37m$bunfs/root/pochi:104693[39m[0m[0m[1m[37m	MjpegToMp4[39m[22m[0m[0m	[ffmpeg] stderr: [swscaler @ 0x55bb948d7500] deprecated pixel format used, make sure you did set range correctly
[37m2026-04-25 19:29:09.700[39m[0m[0m	[32m[1mDEBUG[22m[39m[0m[0m	[37m$bunfs/root/pochi:104693[39m[0m[0m[1m[37m	MjpegToMp4[39m[22m[0m[0m	[ffmpeg] stderr:     Last message repeated 3 times
[37m2026-04-25 19:29:09.700[39m[0m[0m	[32m[1mDEBUG[22m[39m[0m[0m	[37m$bunfs/root/pochi:104693[39m[0m[0m[1m[37m	MjpegToMp4[39m[22m[0m[0m	[ffmpeg] stderr: [libx264 @ 0x55bb948bdf00] using SAR=1/1
[37m2026-04-25 19:29:09.700[39m[0m[0m	[32m[1mDEBUG[22m[39m[0m[0m	[37m$bunfs/root/pochi:104693[39m[0m[0m[1m[37m	MjpegToMp4[39m[22m[0m[0m	[ffmpeg] stderr: [libx264 @ 0x55bb948bdf00] using cpu capabilities: MMX2 SSE2Fast SSSE3 SSE4.2 AVX FMA3 BMI2 AVX2
[37m2026-04-25 19:29:09.701[39m[0m[0m	[32m[1mDEBUG[22m[39m[0m[0m	[37m$bunfs/root/pochi:104693[39m[0m[0m[1m[37m	MjpegToMp4[39m[22m[0m[0m	[ffmpeg] stderr: [libx264 @ 0x55bb948bdf00] profile High, level 3.0, 4:2:0, 8-bit
[37m2026-04-25 19:29:09.701[39m[0m[0m	[32m[1mDEBUG[22m[39m[0m[0m	[37m$bunfs/root/pochi:104693[39m[0m[0m[1m[37m	MjpegToMp4[39m[22m[0m[0m	[ffmpeg] stderr: [libx264 @ 0x55bb948bdf00] 264 - core 164 r3108 31e19f9 - H.264/MPEG-4 AVC codec - Copyleft 2003-2023 - http://www.videolan.org/x264.html - options: cabac=1 ref=1 deblock=1:0:0 analyse=0x3:0x113 me=hex subme=2 psy=1 psy_rd=1.00:0.00 mixed_ref=0 me_range=16 chroma_me=1 trellis=0 8x8dct=1 cqm=0 deadzone=21,11 fast_pskip=1 chroma_qp_offset=0 threads=15 lookahead_threads=3 sliced_threads=0 nr=0 decimate=1 interlaced=0 bluray_compat=0 constrained_intra=0 bframes=3 b_pyramid=2 b_adapt=1 b_bias=0 direct=1 weightb=1 open_gop=0 weightp=1 keyint=250 keyint_min=25 scenecut=40 intra_refresh=0 rc_lookahead=10 rc=crf mbtree=1 crf=23.0 qcomp=0.60 qpmin=0 qpmax=69 qpstep=4 ip_ratio=1.40 aq=1:1.00
[37m2026-04-25 19:29:09.701[39m[0m[0m	[32m[1mDEBUG[22m[39m[0m[0m	[37m$bunfs/root/pochi:104693[39m[0m[0m[1m[37m	MjpegToMp4[39m[22m[0m[0m	[ffmpeg] stderr: Output #0, mp4, to '/tmp/pochi-browser-agent-video-a72bd094-fcd9-48a5-856d-3405a8aa92f5.mp4':
[37m2026-04-25 19:29:09.701[39m[0m[0m	[32m[1mDEBUG[22m[39m[0m[0m	[37m$bunfs/root/pochi:104693[39m[0m[0m[1m[37m	MjpegToMp4[39m[22m[0m[0m	[ffmpeg] stderr:   Metadata:
[37m2026-04-25 19:29:09.701[39m[0m[0m	[32m[1mDEBUG[22m[39m[0m[0m	[37m$bunfs/root/pochi:104693[39m[0m[0m[1m[37m	MjpegToMp4[39m[22m[0m[0m	[ffmpeg] stderr:     encoder         : Lavf60.16.100
[37m2026-04-25 19:29:09.701[39m[0m[0m	[32m[1mDEBUG[22m[39m[0m[0m	[37m$bunfs/root/pochi:104693[39m[0m[0m[1m[37m	MjpegToMp4[39m[22m[0m[0m	[ffmpeg] stderr:   Stream #0:0: Video: h264 (avc1 / 0x31637661), yuv420p(tv, bt470bg/unknown/unknown, progressive), 854x480 [SAR 35200:35197 DAR 3080:1731], q=2-31, 25 fps, 12800 tbn
[37m2026-04-25 19:29:09.701[39m[0m[0m	[32m[1mDEBUG[22m[39m[0m[0m	[37m$bunfs/root/pochi:104693[39m[0m[0m[1m[37m	MjpegToMp4[39m[22m[0m[0m	[ffmpeg] stderr:     Metadata:
[37m2026-04-25 19:29:09.701[39m[0m[0m	[32m[1mDEBUG[22m[39m[0m[0m	[37m$bunfs/root/pochi:104693[39m[0m[0m[1m[37m	MjpegToMp4[39m[22m[0m[0m	[ffmpeg] stderr:       encoder         : Lavc60.31.102 libx264
[37m2026-04-25 19:29:09.701[39m[0m[0m	[32m[1mDEBUG[22m[39m[0m[0m	[37m$bunfs/root/pochi:104693[39m[0m[0m[1m[37m	MjpegToMp4[39m[22m[0m[0m	[ffmpeg] stderr:     Side data:
[37m2026-04-25 19:29:09.701[39m[0m[0m	[32m[1mDEBUG[22m[39m[0m[0m	[37m$bunfs/root/pochi:104693[39m[0m[0m[1m[37m	MjpegToMp4[39m[22m[0m[0m	[ffmpeg] stderr:       cpb: bitrate max/min/avg: 0/0/0 buffer size: 0 vbv_delay: N/A
[37m2026-04-25 19:29:09.702[39m[0m[0m	[32m[1mDEBUG[22m[39m[0m[0m	[37m$bunfs/root/pochi:104693[39m[0m[0m[1m[37m	MjpegToMp4[39m[22m[0m[0m	[ffmpeg] stderr: frame=    0 fps=0.0 q=0.0 size=       0kB time=N/A bitrate=N/A speed=N/A    
[37m2026-04-25 19:29:10.202[39m[0m[0m	[32m[1mDEBUG[22m[39m[0m[0m	[37m$bunfs/root/pochi:104693[39m[0m[0m[1m[37m	MjpegToMp4[39m[22m[0m[0m	[ffmpeg] stderr: frame=  435 fps=0.0 q=28.0 size=       0kB time=00:00:17.28 bitrate=   0.0kbits/s dup=423 drop=0 speed=34.4x    
[37m2026-04-25 19:29:10.715[39m[0m[0m	[32m[1mDEBUG[22m[39m[0m[0m	[37m$bunfs/root/pochi:104693[39m[0m[0m[1m[37m	MjpegToMp4[39m[22m[0m[0m	[ffmpeg] stderr: frame=  871 fps=862 q=28.0 size=       0kB time=00:00:34.76 bitrate=   0.0kbits/s dup=825 drop=0 speed=34.4x    
[37m2026-04-25 19:29:10.924[39m[0m[0m	[32m[1mDEBUG[22m[39m[0m[0m	[37m$bunfs/root/pochi:104693[39m[0m[0m[1m[37m	MjpegToMp4[39m[22m[0m[0m	[ffmpeg] stderr: [vost#0:0/libx264 @ 0x55bb948bdc40] More than 1000 frames duplicated
[37m2026-04-25 19:29:11.221[39m[0m[0m	[32m[1mDEBUG[22m[39m[0m[0m	[37m$bunfs/root/pochi:104693[39m[0m[0m[1m[37m	MjpegToMp4[39m[22m[0m[0m	[ffmpeg] stderr: frame= 1396 fps=919 q=28.0 size=       0kB time=00:00:55.76 bitrate=   0.0kbits/s dup=1308 drop=0 speed=36.7x    
[37m2026-04-25 19:29:11.710[39m[0m[0m	[32m[1mDEBUG[22m[39m[0m[0m	[37m$bunfs/root/pochi:104693[39m[0m[0m[1m[37m	MjpegToMp4[39m[22m[0m[0m	[ffmpeg] stderr: frame= 1934 fps=958 q=28.0 size=       0kB time=00:01:17.28 bitrate=   0.0kbits/s dup=1803 drop=0 speed=38.3x    
[37m2026-04-25 19:29:12.294[39m[0m[0m	[32m[1mDEBUG[22m[39m[0m[0m	[37m$bunfs/root/pochi:104693[39m[0m[0m[1m[37m	MjpegToMp4[39m[22m[0m[0m	[ffmpeg] stderr: frame= 2981 fps=1179 q=28.0 size=       0kB time=00:01:59.12 bitrate=   0.0kbits/s dup=2820 drop=0 speed=47.1x    
[37m2026-04-25 19:29:12.895[39m[0m[0m	[32m[1mDEBUG[22m[39m[0m[0m	[37m$bunfs/root/pochi:104693[39m[0m[0m[1m[37m	MjpegToMp4[39m[22m[0m[0m	[ffmpeg] stderr: frame= 3761 fps=1206 q=28.0 size=     256kB time=00:02:30.32 bitrate=  14.0kbits/s dup=3596 drop=0 speed=48.2x    
[37m2026-04-25 19:29:13.586[39m[0m[0m	[32m[1mDEBUG[22m[39m[0m[0m	[37m$bunfs/root/pochi:104693[39m[0m[0m[1m[37m	MjpegToMp4[39m[22m[0m[0m	[ffmpeg] stderr: frame= 4871 fps=1303 q=28.0 size=     256kB time=00:03:14.72 bitrate=  10.8kbits/s dup=4701 drop=0 speed=52.1x    
[37m2026-04-25 19:29:14.186[39m[0m[0m	[32m[1mDEBUG[22m[39m[0m[0m	[37m$bunfs/root/pochi:104693[39m[0m[0m[1m[37m	MjpegToMp4[39m[22m[0m[0m	[ffmpeg] stderr: frame= 5765 fps=1313 q=28.0 size=     256kB time=00:03:50.52 bitrate=   9.1kbits/s dup=5592 drop=0 speed=52.5x    
[37m2026-04-25 19:29:14.410[39m[0m[0m	[32m[1mDEBUG[22m[39m[0m[0m	[37m$bunfs/root/pochi:104693[39m[0m[0m[1m[37m	MjpegToMp4[39m[22m[0m[0m	[ffmpeg] stderr: [mp4 @ 0x55bb948b8dc0] Starting second pass: moving the moov atom to the beginning of the file
[37m2026-04-25 19:29:14.411[39m[0m[0m	[32m[1mDEBUG[22m[39m[0m[0m	[37m$bunfs/root/pochi:104693[39m[0m[0m[1m[37m	MjpegToMp4[39m[22m[0m[0m	[ffmpeg] stderr: [out#0/mp4 @ 0x55bb948b2800] video:504kB audio:0kB subtitle:0kB other streams:0kB global headers:0kB muxing overhead: 14.831599%
[37m2026-04-25 19:29:14.411[39m[0m[0m	[32m[1mDEBUG[22m[39m[0m[0m	[37m$bunfs/root/pochi:104693[39m[0m[0m[1m[37m	MjpegToMp4[39m[22m[0m[0m	[ffmpeg] stderr: frame= 6318 fps=1338 q=-1.0 Lsize=     579kB time=00:04:12.60 bitrate=  18.8kbits/s dup=6113 drop=0 speed=53.5x    
[37m2026-04-25 19:29:14.411[39m[0m[0m	[32m[1mDEBUG[22m[39m[0m[0m	[37m$bunfs/root/pochi:104693[39m[0m[0m[1m[37m	MjpegToMp4[39m[22m[0m[0m	[ffmpeg] stderr: [libx264 @ 0x55bb948bdf00] frame I:29    Avg QP:10.43  size: 10931
[37m2026-04-25 19:29:14.411[39m[0m[0m	[32m[1mDEBUG[22m[39m[0m[0m	[37m$bunfs/root/pochi:104693[39m[0m[0m[1m[37m	MjpegToMp4[39m[22m[0m[0m	[ffmpeg] stderr: [libx264 @ 0x55bb948bdf00] frame P:1590  Avg QP:14.81  size:    49
[37m2026-04-25 19:29:14.411[39m[0m[0m	[32m[1mDEBUG[22m[39m[0m[0m	[37m$bunfs/root/pochi:104693[39m[0m[0m[1m[37m	MjpegToMp4[39m[22m[0m[0m	[ffmpeg] stderr: [libx264 @ 0x55bb948bdf00] frame B:4699  Avg QP:14.09  size:    26
[37m2026-04-25 19:29:14.411[39m[0m[0m	[32m[1mDEBUG[22m[39m[0m[0m	[37m$bunfs/root/pochi:104693[39m[0m[0m[1m[37m	MjpegToMp4[39m[22m[0m[0m	[ffmpeg] stderr: [libx264 @ 0x55bb948bdf00] consecutive B-frames:  0.8%  0.1%  0.1% 99.0%
[37m2026-04-25 19:29:14.411[39m[0m[0m	[32m[1mDEBUG[22m[39m[0m[0m	[37m$bunfs/root/pochi:104693[39m[0m[0m[1m[37m	MjpegToMp4[39m[22m[0m[0m	[ffmpeg] stderr: [libx264 @ 0x55bb948bdf00] mb I  I16..4: 90.7%  0.5%  8.8%
[37m2026-04-25 19:29:14.411[39m[0m[0m	[32m[1mDEBUG[22m[39m[0m[0m	[37m$bunfs/root/pochi:104693[39m[0m[0m[1m[37m	MjpegToMp4[39m[22m[0m[0m	[ffmpeg] stderr: [libx264 @ 0x55bb948bdf00] mb P  I16..4:  0.1%  0.0%  0.0%  P16..4:  0.0%  0.0%  0.0%  0.0%  0.0%    skip:99.9%
[37m2026-04-25 19:29:14.411[39m[0m[0m	[32m[1mDEBUG[22m[39m[0m[0m	[37m$bunfs/root/pochi:104693[39m[0m[0m[1m[37m	MjpegToMp4[39m[22m[0m[0m	[ffmpeg] stderr: [libx264 @ 0x55bb948bdf00] mb B  I16..4:  0.0%  0.0%  0.0%  B16..8:  0.0%  0.0%  0.0%  direct: 0.0%  skip:100.0%  L0:38.2% L1:61.8% BI: 0.0%
[37m2026-04-25 19:29:14.412[39m[0m[0m	[32m[1mDEBUG[22m[39m[0m[0m	[37m$bunfs/root/pochi:104693[39m[0m[0m[1m[37m	MjpegToMp4[39m[22m[0m[0m	[ffmpeg] stderr: [libx264 @ 0x55bb948bdf00] 8x8 transform intra:0.6% inter:8.5%
[37m2026-04-25 19:29:14.412[39m[0m[0m	[32m[1mDEBUG[22m[39m[0m[0m	[37m$bunfs/root/pochi:104693[39m[0m[0m[1m[37m	MjpegToMp4[39m[22m[0m[0m	[ffmpeg] stderr: [libx264 @ 0x55bb948bdf00] coded y,uvDC,uvAC intra: 13.1% 12.4% 12.1% inter: 0.0% 0.0% 0.0%
[37m2026-04-25 19:29:14.412[39m[0m[0m	[32m[1mDEBUG[22m[39m[0m[0m	[37m$bunfs/root/pochi:104693[39m[0m[0m[1m[37m	MjpegToMp4[39m[22m[0m[0m	[ffmpeg] stderr: [libx264 @ 0x55bb948bdf00] i16 v,h,dc,p: 68% 28%  4%  0%
[37m2026-04-25 19:29:14.412[39m[0m[0m	[32m[1mDEBUG[22m[39m[0m[0m	[37m$bunfs/root/pochi:104693[39m[0m[0m[1m[37m	MjpegToMp4[39m[22m[0m[0m	[ffmpeg] stderr: [libx264 @ 0x55bb948bdf00] i8 v,h,dc,ddl,ddr,vr,hd,vl,hu: 17% 44% 32%  1%  1%  1%  1%  1%  4%
[37m2026-04-25 19:29:14.412[39m[0m[0m	[32m[1mDEBUG[22m[39m[0m[0m	[37m$bunfs/root/pochi:104693[39m[0m[0m[1m[37m	MjpegToMp4[39m[22m[0m[0m	[ffmpeg] stderr: [libx264 @ 0x55bb948bdf00] i4 v,h,dc,ddl,ddr,vr,hd,vl,hu: 24% 31% 19%  3%  3%  4%  5%  4%  7%
[37m2026-04-25 19:29:14.412[39m[0m[0m	[32m[1mDEBUG[22m[39m[0m[0m	[37m$bunfs/root/pochi:104693[39m[0m[0m[1m[37m	MjpegToMp4[39m[22m[0m[0m	[ffmpeg] stderr: [libx264 @ 0x55bb948bdf00] i8c dc,h,v,p: 94%  2%  3%  0%
[37m2026-04-25 19:29:14.412[39m[0m[0m	[32m[1mDEBUG[22m[39m[0m[0m	[37m$bunfs/root/pochi:104693[39m[0m[0m[1m[37m	MjpegToMp4[39m[22m[0m[0m	[ffmpeg] stderr: [libx264 @ 0x55bb948bdf00] Weighted P-Frames: Y:0.0% UV:0.0%
[37m2026-04-25 19:29:14.412[39m[0m[0m	[32m[1mDEBUG[22m[39m[0m[0m	[37m$bunfs/root/pochi:104693[39m[0m[0m[1m[37m	MjpegToMp4[39m[22m[0m[0m	[ffmpeg] stderr: [libx264 @ 0x55bb948bdf00] kb/s:16.33
[37m2026-04-25 19:29:14.416[39m[0m[0m	[32m[1mDEBUG[22m[39m[0m[0m	[37m$bunfs/root/pochi:104693[39m[0m[0m[1m[37m	MjpegToMp4[39m[22m[0m[0m	[ffmpeg] stderr: 
[37m2026-04-25 19:29:14.416[39m[0m[0m	[32m[1mDEBUG[22m[39m[0m[0m	[37mevents:98[39m[0m[0m[1m[37m	MjpegToMp4[39m[22m[0m[0m	[ffmpeg] end
[37m2026-04-25 19:29:23.698[39m[0m[0m	[32m[1mDEBUG[22m[39m[0m[0m	[37mnative:7[39m[0m[0m[1m[37m	Pochi[39m[22m[0m[0m	Task runner finished successfully.
[37m2026-04-25 19:29:23.698[39m[0m[0m	[32m[1mDEBUG[22m[39m[0m[0m	[37mnative:7[39m[0m[0m[1m[37m	Pochi[39m[22m[0m[0m	Shutting down...
[37m2026-04-25 19:29:23.708[39m[0m[0m	[32m[1mDEBUG[22m[39m[0m[0m	[37mnative:7[39m[0m[0m[1m[37m	Pochi[39m[22m[0m[0m	Shutdown completed. Process will exit.
[37m2026-04-25 19:29:23.708[39m[0m[0m	[32m[1mDEBUG[22m[39m[0m[0m	[37m[39m[0m[0m[1m[37m	Pochi[39m[22m[0m[0m	Process exiting with code 0
